<?xml version="1.0" encoding="UTF-8" standalone="no"?>
<!-- Created with Inkscape (http://www.inkscape.org/) -->

<svg
   xmlns:dc="http://purl.org/dc/elements/1.1/"
   xmlns:cc="http://creativecommons.org/ns#"
   xmlns:rdf="http://www.w3.org/1999/02/22-rdf-syntax-ns#"
   xmlns:svg="http://www.w3.org/2000/svg"
   xmlns="http://www.w3.org/2000/svg"
   xmlns:sodipodi="http://sodipodi.sourceforge.net/DTD/sodipodi-0.dtd"
   xmlns:inkscape="http://www.inkscape.org/namespaces/inkscape"
   width="23.764492mm"
   height="10.583323mm"
   viewBox="0 0 23.764493 10.583322"
   version="1.1"
   id="svg8"
   inkscape:version="0.92.4 (5da689c313, 2019-01-14)"
   sodipodi:docname="sippi.svg">
  <defs
     id="defs2" />
  <sodipodi:namedview
     id="base"
     pagecolor="#ffffff"
     bordercolor="#666666"
     borderopacity="1.0"
     inkscape:pageopacity="0.0"
     inkscape:pageshadow="2"
     inkscape:zoom="1"
     inkscape:cx="-90.47562"
     inkscape:cy="23.209824"
     inkscape:document-units="mm"
     inkscape:current-layer="layer1"
     showgrid="false"
     inkscape:snap-object-midpoints="true"
     inkscape:window-width="1920"
     inkscape:window-height="1001"
     inkscape:window-x="-9"
     inkscape:window-y="-9"
     inkscape:window-maximized="1"
     fit-margin-top="0"
     fit-margin-left="0"
     fit-margin-right="0"
     fit-margin-bottom="0"
     inkscape:snap-page="false"
     showguides="false" />
  <metadata
     id="metadata5">
    <rdf:RDF>
      <cc:Work
         rdf:about="">
        <dc:format>image/svg+xml</dc:format>
        <dc:type
           rdf:resource="http://purl.org/dc/dcmitype/StillImage" />
        <dc:title />
      </cc:Work>
    </rdf:RDF>
  </metadata>
  <g
     inkscape:label="Layer 1"
     inkscape:groupmode="layer"
     id="layer1"
     style="display:inline"
     transform="translate(-12.045146,-91.449057)">
    <path
       inkscape:connector-curvature="0"
       id="path4545"
       style="font-style:normal;font-variant:normal;font-weight:normal;font-stretch:condensed;font-size:192px;line-height:132.40011597px;font-family:Impact;-inkscape-font-specification:'Impact Condensed';letter-spacing:0px;word-spacing:0px;fill:#2f9e41;fill-opacity:1;stroke:none;stroke-width:0.06338868"
       d="m 17.73156,94.465793 h -2.495612 v -0.690849 c 0,-0.322403 -0.02988,-0.417059 -0.09222,-0.51938 -0.04749,-0.06426 -0.0819,-0.13063 -0.227808,-0.13202 -0.158206,-0.0015 -0.21637,0.05121 -0.268462,0.126945 -0.07769,0.118977 -0.08811,0.253864 -0.08811,0.495663 0,0.310888 0.04496,0.545012 0.134932,0.702372 0.08588,0.157366 0.231917,0.347352 0.63268,0.569959 1.149146,0.640962 1.872983,1.166782 2.171511,1.57746 0.298536,0.410669 0.447804,1.072738 0.447804,1.986207 0,0.66399 -0.08383,1.153346 -0.251503,1.46807 -0.163579,0.31472 -0.482558,0.57955 -0.956936,0.79452 -0.474385,0.21108 -1.026471,0.31662 -1.656262,0.31662 -0.691112,0 -1.282034,-0.12282 -1.772767,-0.36844 -0.486652,-0.24564 -0.805632,-0.55845 -0.956939,-0.938438 -0.151311,-0.379977 -0.226969,-0.919229 -0.226969,-1.617755 v -0.610262 h 2.495608 v 1.134159 c 0,0.349262 0.01611,0.408504 0.0725,0.511308 0.03842,0.05665 0.118681,0.180707 0.290433,0.180707 0.171753,0 0.268997,-0.04059 0.333732,-0.1221 0.08187,-0.142705 0.07797,-0.251352 0.07797,-0.500829 0,-0.548845 -0.07931,-0.907708 -0.2388,-1.076591 -0.163581,-0.168874 -0.469398,-0.45097 -1.111447,-0.84629 -0.642041,-0.399162 -1.067348,-0.688943 -1.275921,-0.869339 -0.208555,-0.180387 -0.382357,-0.429861 -0.521405,-0.748424 -0.134949,-0.318559 -0.202423,-0.725396 -0.202423,-1.220512 0,-0.713887 0.0961,-1.235867 0.288309,-1.565937 0.196295,-0.330081 0.511185,-0.587234 0.944668,-0.771462 0.433471,-0.188065 0.956924,-0.282098 1.570359,-0.282098 0.670675,0 1.241156,0.10171 1.711443,0.30513 0.474378,0.203417 0.787224,0.460568 0.938535,0.771455 0.155402,0.307046 0.233102,0.830947 0.233102,1.5717 z"
       sodipodi:nodetypes="ccscscscccsccsccsccscscsccccsccscccc" />
    <path
       style="font-style:normal;font-variant:normal;font-weight:normal;font-stretch:condensed;font-size:192px;line-height:132.40011597px;font-family:Impact;-inkscape-font-specification:'Impact Condensed';letter-spacing:0px;word-spacing:0px;fill:#2f9e41;fill-opacity:1;stroke:none;stroke-width:0.0648692"
       d="m 20.862309,93.302098 v 7.639712 h -2.672424 v -7.639712 z"
       id="path4547"
       inkscape:connector-curvature="0" />
    <path
       style="font-style:normal;font-variant:normal;font-weight:normal;font-stretch:condensed;font-size:192px;line-height:132.40011597px;font-family:Impact;-inkscape-font-specification:'Impact Condensed';letter-spacing:0px;word-spacing:0px;fill:#2f9e41;fill-opacity:1;stroke:none;stroke-width:0.06486914"
       d="m 35.809638,93.302098 v 7.639712 h -2.672424 v -7.639712 z"
       id="path4553"
       inkscape:connector-curvature="0" />
    <path
       d="m 23.674674,93.302092 0.748273,0.0016 c 0.567243,0.004 0.886627,0.0036 1.079703,0.0036 0.261735,0.0059 0.772927,-0.02278 1.083724,0.219925 0.22061,0.204118 0.254393,0.3221 0.282157,0.580734 0.02867,0.26672 -0.0102,0.703284 -0.0102,1.309705 v 3.218197 c 0,0.694692 -0.04497,1.189805 -0.134958,1.485387 -0.08585,0.29168 -0.265803,0.52584 -0.539809,0.70233 -0.269892,0.1727 -0.626704,0.24705 -0.981454,0.25904 -3.834163,0.007 -1.466365,-0.0806 -1.570357,-0.19597 v 1.14574 h -2.478222 v -8.730325 z m 0.512392,2.222252 c 7e-5,-0.472087 0,0.02334 0,-0.834475 -0.361112,-3.13e-4 0,0 -0.361112,-3.13e-4 v 0.834789 3.16643 0.892363 l 0.361112,-0.0095 c -4.83e-4,-0.773466 -5.44e-4,-0.366628 -4.83e-4,-0.773466 z"
       style="font-style:normal;font-variant:normal;font-weight:normal;font-stretch:condensed;font-size:192px;line-height:132.40011597px;font-family:Impact;-inkscape-font-specification:'Impact Condensed';letter-spacing:0px;word-spacing:0px;fill:#2f9e41;fill-opacity:1;stroke:none;stroke-width:0.06338868"
       id="path4551-1"
       inkscape:connector-curvature="0"
       sodipodi:nodetypes="ccccsssccccccccsccssccss" />
    <path
       style="font-style:normal;font-variant:normal;font-weight:normal;font-stretch:condensed;font-size:192px;line-height:132.40011597px;font-family:Impact;-inkscape-font-specification:'Impact Condensed';letter-spacing:0px;word-spacing:0px;fill:#cd191e;fill-opacity:1;stroke:none;stroke-width:0.11050599"
       d="m 20.86231,92.037731 -5e-5,1.146034 h -2.672374 l 4.8e-5,-1.146034 z"
       id="path4714-7-5"
       inkscape:connector-curvature="0"
       sodipodi:nodetypes="ccccc" />
    <path
       style="font-style:normal;font-variant:normal;font-weight:normal;font-stretch:condensed;font-size:192px;line-height:132.40011597px;font-family:Impact;-inkscape-font-specification:'Impact Condensed';letter-spacing:0px;word-spacing:0px;display:inline;fill:#cd191e;fill-opacity:1;stroke:none;stroke-width:0.11050584"
       d="m 35.809638,92.037731 -4.9e-5,1.146034 h -2.672375 l 4.6e-5,-1.146034 z"
       id="path4714-7-5-3"
       inkscape:connector-curvature="0"
       sodipodi:nodetypes="ccccc" />
    <path
       d="m 29.680593,93.301618 0.748273,0.0016 c 0.567244,0.004 0.886627,0.0036 1.079702,0.0036 0.261736,0.0059 0.772929,-0.02279 1.083726,0.219925 0.220609,0.204117 0.254391,0.322099 0.282157,0.580733 0.02867,0.26672 -0.0102,0.703285 -0.0102,1.309705 v 3.218198 c 0,0.694692 -0.04497,1.189804 -0.134958,1.485381 -0.08585,0.29169 -0.265804,0.52585 -0.53981,0.70233 -0.269891,0.1727 -0.626702,0.24705 -0.981453,0.25905 -3.834163,0.007 -1.466365,-0.0806 -1.570356,-0.19598 v 1.14574 h -2.478223 v -8.73032 z m 0.512392,2.222252 c 7e-5,-0.472088 0,0.02334 0,-0.834475 -0.361112,-3.14e-4 0,0 -0.361112,-3.14e-4 v 0.834789 3.16643 0.892362 l 0.361112,-0.0095 c -4.88e-4,-0.773466 -5.39e-4,-0.366628 -4.88e-4,-0.773466 z"
       style="font-style:normal;font-variant:normal;font-weight:normal;font-stretch:condensed;font-size:192px;line-height:132.40011597px;font-family:Impact;-inkscape-font-specification:'Impact Condensed';letter-spacing:0px;word-spacing:0px;display:inline;fill:#2f9e41;fill-opacity:1;stroke:none;stroke-width:0.06338868"
       id="path4551-1-1"
       inkscape:connector-curvature="0"
       sodipodi:nodetypes="ccccsssccccccccsccssccss" />
  </g>
</svg>
